<svg width="48" height="48" viewBox="0 0 48 48" fill="none" xmlns="http://www.w3.org/2000/svg">
<path fill-rule="evenodd" clip-rule="evenodd" d="M15.087 39.9036C16.515 39.9036 17.677 41.0636 17.677 42.4916C17.677 43.9196 16.515 45.0816 15.087 45.0816C13.659 45.0816 12.499 43.9196 12.499 42.4916C12.499 41.0636 13.659 39.9036 15.087 39.9036ZM37.6476 39.9036C39.0776 39.9036 40.2396 41.0636 40.2396 42.4916C40.2396 43.9196 39.0776 45.0816 37.6476 45.0816C36.2196 45.0816 35.0596 43.9196 35.0596 42.4916C35.0596 41.0636 36.2196 39.9036 37.6476 39.9036ZM6.53537 6.01879L10.6954 6.73879C11.3654 6.85679 11.8754 7.41279 11.9334 8.09279L12.4034 13.6948L14.1511 13.6955C14.4363 13.6957 14.7184 13.6958 14.9976 13.6959L18.2062 13.6974C18.462 13.6976 18.7149 13.6977 18.965 13.6978L22.5077 13.6998C22.7303 13.6999 22.9502 13.7 23.1675 13.7002L25.6501 13.7018C25.8468 13.7019 26.041 13.702 26.2327 13.7022L28.4163 13.7038C28.5887 13.7039 28.7588 13.704 28.9265 13.7042L30.8304 13.7058C30.9802 13.7059 31.1277 13.7061 31.2731 13.7062L32.5245 13.7075C32.6573 13.7076 32.788 13.7077 32.9167 13.7079L34.3658 13.7096C34.4788 13.7097 34.5899 13.7098 34.6992 13.71L35.9227 13.7117C36.0176 13.7118 36.1107 13.712 36.2021 13.7121L36.9797 13.7134C37.0612 13.7136 37.1411 13.7137 37.2194 13.7139L38.0856 13.7156C38.1518 13.7158 38.2166 13.7159 38.28 13.7161L38.8131 13.7174C38.8683 13.7175 38.9222 13.7177 38.9748 13.7178L39.5463 13.7196C39.5891 13.7198 39.6308 13.7199 39.6714 13.7201L40.0069 13.7215C40.041 13.7216 40.0741 13.7218 40.1062 13.7219L40.4457 13.7238C40.4703 13.7239 40.4941 13.7241 40.5171 13.7242L40.7021 13.7256C40.7203 13.7258 40.7379 13.7259 40.7547 13.7261L40.8878 13.7275C40.9007 13.7277 40.913 13.7278 40.9247 13.728L41.0153 13.7294C41.0238 13.7296 41.0319 13.7298 41.0395 13.7299L41.0969 13.7314C41.1021 13.7315 41.107 13.7317 41.1115 13.7319L41.1531 13.7338L41.1602 13.7343C41.1796 13.7361 41.1854 13.7368 41.1854 13.7368C42.2994 13.8988 43.2794 14.4808 43.9474 15.3768C44.6154 16.2708 44.8954 17.3728 44.7354 18.4768L42.8374 31.5928C42.4794 34.0888 40.3114 35.9708 37.7914 35.9708H15.9494C13.3154 35.9708 11.0854 33.9148 10.8714 31.2848L9.03937 9.49679L6.02537 8.97679C5.20737 8.83279 4.66137 8.05879 4.80137 7.24079C4.94537 6.42279 5.73537 5.89079 6.53537 6.01879ZM13.7498 16.6955L12.6554 16.6948L13.8614 31.0388C13.9494 32.1428 14.8514 32.9708 15.9534 32.9708H37.7874C38.8294 32.9708 39.7194 32.1948 39.8674 31.1648L41.7674 18.0468C41.8114 17.7348 41.7334 17.4228 41.5434 17.1708C41.3554 16.9168 41.0794 16.7528 40.7674 16.7088C40.753 16.7093 40.7184 16.7098 40.6647 16.7103L40.4472 16.7115C40.4017 16.7117 40.3517 16.7119 40.2972 16.7121L39.1642 16.7138C39.0686 16.7139 38.9692 16.7139 38.8661 16.714L36.2022 16.7139C36.0535 16.7138 35.9021 16.7137 35.7479 16.7137L32.7077 16.7118C32.5255 16.7117 32.3414 16.7116 32.1554 16.7114L30.4351 16.71C30.2392 16.7099 30.0418 16.7097 29.843 16.7095L28.0208 16.7079C27.8151 16.7078 27.6083 16.7076 27.4007 16.7074L26.1455 16.7062C25.9349 16.706 25.7237 16.7058 25.512 16.7056L23.5966 16.7038C23.383 16.7036 23.1693 16.7034 22.9556 16.7032L21.6743 16.7021C21.4611 16.7019 21.2481 16.7017 21.0355 16.7015L19.765 16.7003C19.5544 16.7001 19.3443 16.6999 19.1349 16.6998L17.2739 16.6981C17.0701 16.698 16.8673 16.6978 16.6658 16.6976L14.314 16.6959C14.1242 16.6957 13.9361 16.6956 13.7498 16.6955ZM34.5752 21.0874C35.4032 21.0874 36.0752 21.7594 36.0752 22.5874C36.0752 23.4154 35.4032 24.0874 34.5752 24.0874H29.0312C28.2012 24.0874 27.5312 23.4154 27.5312 22.5874C27.5312 21.7594 28.2012 21.0874 29.0312 21.0874H34.5752Z" fill="white"/>
</svg>
