<svg width="48" height="48" viewBox="0 0 48 48" fill="none" xmlns="http://www.w3.org/2000/svg">
<path fill-rule="evenodd" clip-rule="evenodd" d="M38.7692 17.44C39.5952 17.508 40.2112 18.23 40.1452 19.056C40.1332 19.192 39.0492 32.614 38.4252 38.244C38.0372 41.738 35.7292 43.864 32.2452 43.928C29.5792 43.974 27.0072 44 24.4932 44C21.7832 44 19.1412 43.97 16.5272 43.916C13.1832 43.85 10.8692 41.682 10.4912 38.258C9.8612 32.578 8.7832 19.19 8.7732 19.056C8.7052 18.23 9.3212 17.506 10.1472 17.44C10.9612 17.418 11.6972 17.99 11.7632 18.814C11.7696 18.9008 12.2103 24.3681 12.6905 29.7774L12.787 30.8569C13.0289 33.5457 13.2741 36.1293 13.4732 37.928C13.6872 39.874 14.7372 40.878 16.5892 40.916C21.5892 41.022 26.6912 41.028 32.1912 40.928C34.1592 40.89 35.2232 39.906 35.4432 37.914C36.0632 32.326 37.1432 18.95 37.1552 18.814C37.2212 17.99 37.9512 17.414 38.7692 17.44ZM28.6908 4.00061C30.5268 4.00061 32.1408 5.23861 32.6148 7.01261L33.1228 9.53461C33.287 10.3614 34.0125 10.9651 34.8526 10.9784L41.416 10.9786C42.244 10.9786 42.916 11.6506 42.916 12.4786C42.916 13.3066 42.244 13.9786 41.416 13.9786L34.9112 13.9783C34.9011 13.9785 34.8909 13.9786 34.8808 13.9786L34.832 13.9766L14.0832 13.9784C14.0671 13.9785 14.051 13.9786 14.0348 13.9786L14.004 13.9766L7.5 13.9786C6.672 13.9786 6 13.3066 6 12.4786C6 11.6506 6.672 10.9786 7.5 10.9786L14.062 10.9766L14.264 10.9638C15.0166 10.8662 15.6421 10.2946 15.7948 9.53461L16.2808 7.10261C16.7748 5.23861 18.3888 4.00061 20.2248 4.00061H28.6908ZM28.6908 7.00061H20.2248C19.7448 7.00061 19.3228 7.32261 19.2008 7.78461L18.7348 10.1246C18.6756 10.421 18.5893 10.7066 18.479 10.9791H30.4372C30.3267 10.7066 30.2403 10.421 30.1808 10.1246L29.6948 7.69261C29.5928 7.32261 29.1708 7.00061 28.6908 7.00061Z" fill="white"/>
</svg>
