<svg width="48" height="48" viewBox="0 0 48 48" fill="none" xmlns="http://www.w3.org/2000/svg">
<path fill-rule="evenodd" clip-rule="evenodd" d="M24.722 4C36.148 4 45.444 13.296 45.444 24.722C45.444 36.148 36.148 45.444 24.722 45.444C13.296 45.444 4 36.148 4 24.722C4 13.296 13.296 4 24.722 4ZM24.722 7C14.95 7 7 14.952 7 24.722C7 34.494 14.95 42.444 24.722 42.444C34.494 42.444 42.444 34.494 42.444 24.722C42.444 14.952 34.494 7 24.722 7ZM32.4652 16.9798C32.8592 17.3758 33.0032 17.9578 32.8352 18.4878L29.6512 28.6658C29.5052 29.1358 29.1352 29.5038 28.6672 29.6498L18.4892 32.8358C18.3412 32.8818 18.1892 32.9038 18.0412 32.9038C17.6492 32.9038 17.2652 32.7498 16.9792 32.4658C16.5852 32.0698 16.4412 31.4878 16.6092 30.9578L19.7952 20.7798C19.9412 20.3078 20.3092 19.9418 20.7772 19.7958L30.9552 16.6098C31.4892 16.4398 32.0692 16.5858 32.4652 16.9798ZM29.1172 20.3278L22.4232 22.4238L20.3292 29.1178L27.0212 27.0218L29.1172 20.3278Z" fill="#808D9E"/>
</svg>
