<svg width="48" height="48" viewBox="0 0 48 48" fill="none" xmlns="http://www.w3.org/2000/svg">
<path d="M19.7305 5.77198C22.0713 3.41398 25.8927 3.41398 28.2536 5.75398L29.7141 7.21198C30.2743 7.77198 31.0346 8.09398 31.8349 8.09398H33.8956C37.2168 8.09398 39.9178 10.792 39.9178 14.112V16.174C39.9178 16.972 40.2379 17.732 40.7981 18.292L42.2386 19.732C43.3791 20.852 43.9993 22.372 43.9993 23.972C44.0193 25.572 43.3991 27.094 42.2787 28.232L40.7981 29.712C40.2379 30.272 39.9178 31.032 39.9178 31.834V33.892C39.9178 37.212 37.2168 39.914 33.8956 39.914H31.8349C31.0346 39.914 30.2743 40.232 29.7141 40.792L28.2736 42.232C27.0932 43.414 25.5526 43.992 24.012 43.992C22.4715 43.992 20.9309 43.414 19.7505 42.254L18.29 40.792C17.7298 40.232 16.9695 39.914 16.1692 39.914H14.1085C10.7872 39.914 8.08627 37.212 8.08627 33.892V31.834C8.08627 31.032 7.76615 30.272 7.20595 29.692L5.76543 28.272C3.42458 25.934 3.40457 22.112 5.74542 19.754L7.20595 18.292C7.76615 17.732 8.08627 16.972 8.08627 16.152V14.112C8.08627 10.792 10.7872 8.09398 14.1085 8.09398H16.1692C16.9695 8.09398 17.7298 7.77198 18.29 7.21198L19.7305 5.77198ZM29.1539 27.392C28.1736 27.392 27.3933 28.174 27.3933 29.132C27.3933 30.112 28.1736 30.892 29.1539 30.892C30.1143 30.892 30.8945 30.112 30.8945 29.132C30.8945 28.174 30.1143 27.392 29.1539 27.392ZM30.3743 17.612C29.6941 16.934 28.5937 16.934 27.9135 17.612L17.6297 27.892C16.9495 28.572 16.9495 29.692 17.6297 30.372C17.9498 30.712 18.39 30.892 18.8502 30.892C19.3303 30.892 19.7705 30.712 20.0906 30.372L30.3743 20.094C31.0546 19.414 31.0546 18.292 30.3743 17.612ZM18.8702 17.112C17.9098 17.112 17.1095 17.892 17.1095 18.852C17.1095 19.834 17.9098 20.612 18.8702 20.612C19.8305 20.612 20.6108 19.834 20.6108 18.852C20.6108 17.892 19.8305 17.112 18.8702 17.112Z" fill="#E8FB7A"/>
</svg>
