<svg width="48" height="48" viewBox="0 0 48 48" fill="none" xmlns="http://www.w3.org/2000/svg">
<path d="M39.9796 37.9065C41.0938 37.9065 42 38.8245 42 39.9533C42 41.0841 41.0938 42 39.9796 42H28.5594C27.4452 42 26.5389 41.0841 26.5389 39.9533C26.5389 38.8245 27.4452 37.9065 28.5594 37.9065H39.9796ZM32.0597 7.39813L35.0097 9.74157C36.2195 10.6875 37.0259 11.9345 37.3018 13.246C37.6202 14.6886 37.2806 16.1054 36.3256 17.3309L18.7528 40.0558C17.9463 41.0878 16.7578 41.6683 15.4844 41.6898L8.48079 41.7758C8.09877 41.7758 7.78043 41.5178 7.69553 41.1523L6.1038 34.2509C5.8279 32.9825 6.1038 31.671 6.91028 30.6605L19.3683 14.5359C19.5805 14.278 19.9625 14.2371 20.2172 14.4284L25.4593 18.5993C25.7989 18.8788 26.2658 19.0293 26.7539 18.9648C27.7939 18.8358 28.4942 17.8899 28.3881 16.8794C28.3244 16.3634 28.0698 15.9334 27.7302 15.6109C27.6241 15.5249 22.6366 11.526 22.6366 11.526C22.3183 11.268 22.2546 10.795 22.5093 10.4747L24.483 7.91411C26.3082 5.57067 29.4917 5.35568 32.0597 7.39813Z" fill="black"/>
</svg>
