<svg width="48" height="48" viewBox="0 0 48 48" fill="none" xmlns="http://www.w3.org/2000/svg">
<path fill-rule="evenodd" clip-rule="evenodd" d="M24.4694 8.07799C27.7214 6.02199 32.0414 5.45399 35.7734 6.64999C43.8914 9.26799 46.4114 18.118 44.1574 25.16C40.6794 36.22 25.8254 44.47 25.1954 44.816C24.9714 44.94 24.7234 45.002 24.4754 45.002C24.2274 45.002 23.9814 44.942 23.7574 44.82C23.1314 44.478 8.38543 36.35 4.79142 25.162L4.78942 25.16C2.53342 18.116 5.04543 9.26399 13.1554 6.64999C16.9634 5.41799 21.1134 5.95999 24.4694 8.07799ZM14.0754 9.50599C7.51343 11.622 5.86542 18.68 7.64742 24.246C10.4514 32.97 21.5294 40.024 24.4734 41.77C27.4274 40.006 38.5854 32.874 41.2994 24.254C43.0814 18.682 41.4274 11.624 34.8554 9.50599C31.6714 8.48399 27.9574 9.10599 25.3934 11.09C24.8574 11.502 24.1134 11.51 23.5734 11.102C20.8574 9.05999 17.3094 8.46199 14.0754 9.50599ZM32.9354 13.4778C35.6614 14.3598 37.5714 16.7738 37.8054 19.6278C37.8714 20.4538 37.2574 21.1778 36.4314 21.2438C36.3894 21.2478 36.3494 21.2498 36.3074 21.2498C35.5334 21.2498 34.8774 20.6558 34.8134 19.8718C34.6814 18.2278 33.5814 16.8398 32.0154 16.3338C31.2254 16.0778 30.7934 15.2318 31.0474 14.4458C31.3054 13.6578 32.1434 13.2298 32.9354 13.4778Z" fill="#808D9E"/>
</svg>
