<svg width="49" height="49" viewBox="0 0 49 49" fill="none" xmlns="http://www.w3.org/2000/svg">
<path d="M18.9016 41.9718V35.8564C18.9016 34.2953 20.1764 33.0298 21.7489 33.0298H27.4972C28.2524 33.0298 28.9766 33.3276 29.5106 33.8577C30.0446 34.3877 30.3446 35.1067 30.3446 35.8564V41.9718C30.3398 42.6208 30.5962 43.2449 31.0568 43.7055C31.5174 44.1661 32.1441 44.4251 32.7979 44.4251H36.7197C38.5513 44.4298 40.3095 43.7108 41.6064 42.4268C42.9032 41.1427 43.632 39.3991 43.632 37.5808V20.1589C43.632 18.6901 42.9762 17.2968 41.8413 16.3545L28.5001 5.77688C26.1793 3.92226 22.8542 3.98214 20.6028 5.9191L7.56604 16.3545C6.3775 17.269 5.66712 18.6664 5.63202 20.1589V37.563C5.63202 41.3528 8.72678 44.4251 12.5444 44.4251H16.3766C17.7345 44.4251 18.838 43.3376 18.8479 41.9896L18.9016 41.9718Z" fill="#E8FB7A"/>
</svg>
