<svg width="48" height="48" viewBox="0 0 48 48" fill="none" xmlns="http://www.w3.org/2000/svg">
<path fill-rule="evenodd" clip-rule="evenodd" d="M27.434 30.5825C29.842 30.5825 31.802 32.5285 31.802 34.9205V41.0725C31.802 41.5865 32.214 41.9985 32.742 42.0105H36.554C39.558 42.0105 42 39.5985 42 36.6345V19.1865C41.986 18.1665 41.5 17.2065 40.666 16.5685L27.48 6.0525C25.71 4.6505 23.234 4.6505 21.458 6.0565L8.362 16.5645C7.496 17.2225 7.01 18.1825 7 19.2205V36.6345C7 39.5985 9.442 42.0105 12.446 42.0105H16.294C16.836 42.0105 17.276 41.5805 17.276 41.0525C17.276 40.9365 17.29 40.8205 17.314 40.7105V34.9205C17.314 32.5425 19.262 30.5985 21.652 30.5825H27.434ZM36.554 45.0105H32.706C30.502 44.9585 28.802 43.2285 28.802 41.0725V34.9205C28.802 34.1825 28.188 33.5825 27.434 33.5825H21.662C20.924 33.5865 20.314 34.1885 20.314 34.9205V41.0525C20.314 41.2025 20.294 41.3465 20.252 41.4825C20.036 43.4625 18.344 45.0105 16.294 45.0105H12.446C7.788 45.0105 4 41.2525 4 36.6345V19.2065C4.02 17.2185 4.936 15.3985 6.518 14.2005L19.588 3.7105C22.466 1.4305 26.476 1.4305 29.348 3.7065L42.512 14.2065C44.058 15.3845 44.974 17.2005 45 19.1645V36.6345C45 41.2525 41.212 45.0105 36.554 45.0105Z" fill="#808D9E"/>
</svg>
