<svg width="48" height="48" viewBox="0 0 48 48" fill="none" xmlns="http://www.w3.org/2000/svg">
<path fill-rule="evenodd" clip-rule="evenodd" d="M24.499 4C33.597 4 40.999 11.458 40.999 20.626C40.999 31.896 28.087 43 24.499 43C20.911 43 7.99902 31.896 7.99902 20.626C7.99902 11.458 15.401 4 24.499 4ZM24.499 7C17.055 7 10.999 13.114 10.999 20.626C10.999 30.184 22.247 39.496 24.499 39.992C26.751 39.494 37.999 30.182 37.999 20.626C37.999 13.114 31.943 7 24.499 7ZM24.501 14C28.085 14 31.001 16.916 31.001 20.502C31.001 24.086 28.085 27 24.501 27C20.917 27 18.001 24.086 18.001 20.502C18.001 16.916 20.917 14 24.501 14ZM24.501 17C22.571 17 21.001 18.57 21.001 20.502C21.001 22.432 22.571 24 24.501 24C26.431 24 28.001 22.432 28.001 20.502C28.001 18.57 26.431 17 24.501 17Z" fill="white"/>
</svg>
