<svg width="48" height="48" viewBox="0 0 48 48" fill="none" xmlns="http://www.w3.org/2000/svg">
<path fill-rule="evenodd" clip-rule="evenodd" d="M22.6166 4C27.5086 4 31.4886 7.98 31.4886 12.872V14.736C31.4886 15.564 30.8166 16.236 29.9886 16.236C29.1606 16.236 28.4886 15.564 28.4886 14.736V12.872C28.4886 9.632 25.8546 7 22.6166 7H12.8666C9.63261 7 7.00061 9.632 7.00061 12.872V35.13C7.00061 38.368 9.63261 41 12.8666 41H22.6386C25.8626 41 28.4886 38.376 28.4886 35.152V33.266C28.4886 32.438 29.1606 31.766 29.9886 31.766C30.8166 31.766 31.4886 32.438 31.4886 33.266V35.152C31.4886 40.032 27.5166 44 22.6386 44H12.8666C7.97861 44 4.00061 40.022 4.00061 35.13V12.872C4.00061 7.98 7.97861 4 12.8666 4H22.6166ZM38.7768 17.108L44.6328 22.938C44.6851 22.9898 44.7318 23.0437 44.7746 23.1008L44.6328 22.938C44.7037 23.0079 44.7667 23.0842 44.8214 23.1656C44.8454 23.2025 44.8686 23.2406 44.8902 23.2798C44.9076 23.3105 44.9237 23.3424 44.9386 23.3749C44.9512 23.4036 44.9633 23.4324 44.9745 23.4615C44.9896 23.4995 45.0028 23.5386 45.0144 23.5782C45.0231 23.6094 45.0312 23.6405 45.0382 23.672C45.0471 23.7102 45.0542 23.7486 45.0597 23.7874C45.0628 23.8125 45.0659 23.8389 45.0683 23.8655C45.0728 23.9111 45.0748 23.9555 45.0748 24L45.0646 24.124L45.0605 24.2035C45.06 24.2068 45.0596 24.2102 45.0591 24.2136L45.0748 24C45.0748 24.111 45.0625 24.221 45.0386 24.3278C45.0312 24.3595 45.0231 24.3906 45.0142 24.4213C45.0028 24.4614 44.9896 24.5005 44.9748 24.5389C44.9633 24.5676 44.9512 24.5964 44.9382 24.6246C44.9237 24.6576 44.9076 24.6895 44.8904 24.7209C44.8686 24.7594 44.8454 24.7975 44.8206 24.8345C44.8066 24.8564 44.7912 24.8781 44.7752 24.8993C44.7276 24.962 44.6757 25.0209 44.6195 25.0755L38.7768 30.894C38.4848 31.186 38.1008 31.332 37.7188 31.332C37.3348 31.332 36.9488 31.186 36.6568 30.89C36.0728 30.302 36.0748 29.354 36.6608 28.77L39.9406 25.5H19.4922C18.6642 25.5 17.9922 24.828 17.9922 24C17.9922 23.172 18.6642 22.5 19.4922 22.5H39.9446L36.6608 19.232C36.0748 18.648 36.0708 17.7 36.6568 17.112C37.2408 16.524 38.1888 16.524 38.7768 17.108Z" fill="#FF4E63"/>
</svg>
