<svg width="48" height="48" viewBox="0 0 48 48" fill="none" xmlns="http://www.w3.org/2000/svg">
<path d="M19.9264 38.4558C20.9262 38.2443 27.0186 38.2443 28.0184 38.4558C28.8731 38.6532 29.7974 39.1145 29.7974 40.1217C29.7477 41.0805 29.1852 41.9305 28.408 42.4704C27.4002 43.256 26.2175 43.7535 24.9811 43.9328C24.2974 44.0214 23.6255 44.0234 22.9656 43.9328C21.7272 43.7535 20.5445 43.256 19.5388 42.4684C18.7596 41.9305 18.197 41.0805 18.1473 40.1217C18.1473 39.1145 19.0716 38.6532 19.9264 38.4558ZM24.0904 4C28.2507 4 32.5005 5.97404 35.0249 9.24933C36.6628 11.3583 37.4141 13.4653 37.4141 16.7406V17.5927C37.4141 20.1045 38.078 21.5851 39.539 23.2912C40.6462 24.5481 41 26.1616 41 27.912C41 29.6605 40.4255 31.3203 39.2747 32.6679C37.768 34.2833 35.6431 35.3147 33.4745 35.494C30.3319 35.7619 27.1873 35.9875 24.001 35.9875C20.8127 35.9875 17.6701 35.8525 14.5275 35.494C12.3569 35.3147 10.232 34.2833 8.72733 32.6679C7.57644 31.3203 7 29.6605 7 27.912C7 26.1616 7.3558 24.5481 8.46098 23.2912C9.96767 21.5851 10.5878 20.1045 10.5878 17.5927V16.7406C10.5878 13.3767 11.4267 11.177 13.154 9.02372C15.7221 5.88339 19.8387 4 23.9115 4H24.0904Z" fill="#E8FB7A"/>
</svg>
