<svg width="48" height="48" viewBox="0 0 48 48" fill="none" xmlns="http://www.w3.org/2000/svg">
<path fill-rule="evenodd" clip-rule="evenodd" d="M23.478 4C34.218 4 42.954 12.736 42.954 23.476C42.954 28.5431 41.0094 33.1646 37.8273 36.633L44.0888 42.8814C44.6748 43.4674 44.6768 44.4154 44.0908 45.0014C43.7988 45.2974 43.4128 45.4434 43.0288 45.4434C42.6468 45.4434 42.2628 45.2974 41.9688 45.0054L35.6317 38.686C32.2981 41.3557 28.0714 42.954 23.478 42.954C12.738 42.954 4 34.216 4 23.476C4 12.736 12.738 4 23.478 4ZM23.478 7C14.392 7 7 14.39 7 23.476C7 32.562 14.392 39.954 23.478 39.954C32.562 39.954 39.954 32.562 39.954 23.476C39.954 14.39 32.562 7 23.478 7Z" fill="white"/>
</svg>
