<svg width="48" height="48" viewBox="0 0 48 48" fill="none" xmlns="http://www.w3.org/2000/svg">
<path fill-rule="evenodd" clip-rule="evenodd" d="M24.5344 4.00098C25.9664 4.00098 27.3584 4.58898 28.3564 5.61098C29.3524 6.63898 29.9024 8.04898 29.8604 9.47898C29.8644 9.80098 29.9704 10.173 30.1624 10.499C30.4804 11.039 30.9824 11.419 31.5784 11.575C32.1744 11.723 32.7984 11.643 33.3284 11.329C35.8884 9.86698 39.1464 10.743 40.6084 13.283L41.8544 15.441C41.8864 15.499 41.9144 15.555 41.9384 15.613C43.2624 18.115 42.3784 21.265 39.9184 22.703C39.5604 22.909 39.2704 23.197 39.0704 23.545C38.7604 24.083 38.6744 24.723 38.8304 25.311C38.9904 25.911 39.3724 26.409 39.9104 26.717C41.1244 27.415 42.0304 28.591 42.3924 29.949C42.7544 31.305 42.5564 32.777 41.8504 33.991L40.5224 36.203C39.0604 38.715 35.8024 39.585 33.2684 38.121C32.9304 37.927 32.5404 37.821 32.1524 37.811H32.1404C31.5624 37.811 30.9684 38.057 30.5364 38.487C30.0984 38.925 29.8584 39.509 29.8624 40.129C29.8484 43.067 27.4584 45.443 24.5344 45.443H22.0284C19.0904 45.443 16.7004 43.055 16.7004 40.117C16.6964 39.755 16.5924 39.379 16.3984 39.053C16.0844 38.505 15.5764 38.113 14.9904 37.957C14.4084 37.801 13.7704 37.887 13.2464 38.191C11.9904 38.891 10.5124 39.061 9.1604 38.681C7.8104 38.299 6.6444 37.371 5.9604 36.141L4.7104 33.987C3.2484 31.451 4.1184 28.201 6.6504 26.737C7.3684 26.323 7.8144 25.551 7.8144 24.723C7.8144 23.895 7.3684 23.121 6.6504 22.707C4.1164 21.235 3.2484 17.977 4.7084 15.441L6.0644 13.215C7.5064 10.707 10.7664 9.82298 13.3084 11.283C13.6544 11.489 14.0304 11.593 14.4124 11.597C15.6584 11.597 16.7004 10.569 16.7204 9.30498C16.7124 7.91098 17.2624 6.57298 18.2644 5.56298C19.2704 4.55498 20.6064 4.00098 22.0284 4.00098H24.5344ZM24.5344 7.00098H22.0284C21.4084 7.00098 20.8284 7.24298 20.3904 7.67898C19.9544 8.11698 19.7164 8.69898 19.7204 9.31898C19.6784 12.243 17.2884 14.597 14.3944 14.597C13.4664 14.587 12.5724 14.337 11.7964 13.873C10.7064 13.253 9.2824 13.635 8.6444 14.745L7.2904 16.971C6.6704 18.047 7.0504 19.469 8.1544 20.111C9.7924 21.059 10.8144 22.827 10.8144 24.723C10.8144 26.619 9.7924 28.385 8.1504 29.335C7.0524 29.971 6.6724 31.385 7.3084 32.485L8.5704 34.661C8.8824 35.223 9.3924 35.629 9.9824 35.795C10.5704 35.959 11.2184 35.889 11.7584 35.589C12.5524 35.123 13.4764 34.881 14.4044 34.881C14.8624 34.881 15.3204 34.939 15.7684 35.059C17.1204 35.423 18.2944 36.327 18.9904 37.541C19.4424 38.303 19.6924 39.193 19.7004 40.101C19.7004 41.401 20.7444 42.443 22.0284 42.443H24.5344C25.8124 42.443 26.8564 41.407 26.8624 40.129C26.8544 38.717 27.4064 37.375 28.4164 36.365C29.4124 35.369 30.8044 34.771 32.1964 34.811C33.1084 34.833 33.9864 35.079 34.7604 35.519C35.8744 36.157 37.2964 35.777 37.9404 34.677L39.2684 32.463C39.5644 31.953 39.6504 31.313 39.4924 30.723C39.3364 30.133 38.9444 29.621 38.4164 29.319C37.1804 28.607 36.2984 27.459 35.9324 26.083C35.5704 24.733 35.7684 23.259 36.4744 22.045C36.9344 21.245 37.6084 20.571 38.4164 20.107C39.5004 19.473 39.8804 18.055 39.2504 16.951C39.2244 16.907 39.2004 16.861 39.1804 16.813L38.0084 14.781C37.3704 13.671 35.9504 13.289 34.8364 13.923C33.6324 14.635 32.2004 14.839 30.8244 14.477C29.4504 14.121 28.2984 13.251 27.5804 12.023C27.1204 11.255 26.8704 10.361 26.8624 9.45098C26.8804 8.76698 26.6404 8.15298 26.2044 7.70298C25.7704 7.25498 25.1604 7.00098 24.5344 7.00098ZM23.2902 17.9492C27.0242 17.9492 30.0622 20.9892 30.0622 24.7232C30.0622 28.4572 27.0242 31.4932 23.2902 31.4932C19.5562 31.4932 16.5182 28.4572 16.5182 24.7232C16.5182 20.9892 19.5562 17.9492 23.2902 17.9492ZM23.2902 20.9492C21.2102 20.9492 19.5182 22.6432 19.5182 24.7232C19.5182 26.8032 21.2102 28.4932 23.2902 28.4932C25.3702 28.4932 27.0622 26.8032 27.0622 24.7232C27.0622 22.6432 25.3702 20.9492 23.2902 20.9492Z" fill="white"/>
</svg>
