<svg width="48" height="48" viewBox="0 0 48 48" fill="none" xmlns="http://www.w3.org/2000/svg">
<path fill-rule="evenodd" clip-rule="evenodd" d="M24.9672 4C27.2332 4 39.1232 8.082 40.6972 9.656C42.0092 10.968 41.9892 12.028 41.8972 17.108C41.8612 19.144 41.8112 21.918 41.8112 25.758C41.8112 39.522 26.0712 44.446 25.4012 44.648C25.2592 44.692 25.1132 44.712 24.9672 44.712C24.8212 44.712 24.6752 44.692 24.5332 44.648C23.8632 44.446 8.12319 39.522 8.12319 25.758C8.12319 21.924 8.07319 19.15 8.03719 17.114C8.02076 16.2058 8.00662 15.426 8.00197 14.7501L8.0014 13.9875C8.01856 11.4823 8.25369 10.64 9.23919 9.656C10.8092 8.082 22.6992 4 24.9672 4ZM24.9672 7C23.2712 7 12.5712 10.768 11.3372 11.798C10.9732 12.164 10.9592 12.8 11.0372 17.058C11.0732 19.11 11.1232 21.898 11.1232 25.758C11.1232 36.16 22.5672 40.778 24.9652 41.628C27.3612 40.774 38.8112 36.13 38.8112 25.758C38.8112 21.894 38.8612 19.104 38.8992 17.052C38.9752 12.798 38.9612 12.162 38.5752 11.778C37.3652 10.768 26.6632 7 24.9672 7ZM32.4102 18.679C32.9962 19.265 32.9962 20.215 32.4102 20.801L24.6142 28.599C24.3902 28.8246 24.1009 28.9708 23.7904 29.0203L23.5542 29.039C23.1562 29.039 22.7742 28.881 22.4922 28.599L18.7082 24.811C18.1242 24.225 18.1242 23.273 18.7102 22.689C19.2942 22.103 20.2462 22.103 20.8322 22.689L23.5542 25.415L30.2902 18.679C30.8762 18.093 31.8242 18.093 32.4102 18.679Z" fill="white"/>
</svg>
