<svg width="48" height="48" viewBox="0 0 48 48" fill="none" xmlns="http://www.w3.org/2000/svg">
<path fill-rule="evenodd" clip-rule="evenodd" d="M33.2832 6C39.8972 6 45.2772 11.38 45.2772 17.996V32.35C45.2772 38.964 39.8972 44.346 33.2832 44.346H15.9952C9.38121 44.346 3.99921 38.964 3.99921 32.35V17.996C3.99921 11.38 9.38121 6 15.9952 6H33.2832ZM33.2832 9H15.9952C11.0352 9 6.99921 13.036 6.99921 17.996V32.35C6.99921 37.31 11.0352 41.346 15.9952 41.346H33.2832C38.2432 41.346 42.2772 37.31 42.2772 32.35V31.79L35.6814 31.7912C31.8874 31.7912 28.7994 28.7052 28.7974 24.9132C28.7974 21.1172 31.8854 18.0292 35.6814 18.0272L42.2772 18.026V17.996C42.2772 13.036 38.2432 9 33.2832 9ZM42.2772 21.026L35.6814 21.0272C33.5394 21.0292 31.7974 22.7712 31.7974 24.9112C31.7974 27.0492 33.5414 28.7912 35.6814 28.7912L42.2772 28.79V21.026ZM36.5966 23.2872C37.4246 23.2872 38.0966 23.9592 38.0966 24.7872C38.0966 25.6152 37.4246 26.2872 36.5966 26.2872H35.9726C35.1446 26.2872 34.4726 25.6152 34.4726 24.7872C34.4726 23.9592 35.1446 23.2872 35.9726 23.2872H36.5966ZM25.3692 15.0762C26.1972 15.0762 26.8692 15.7482 26.8692 16.5762C26.8692 17.4042 26.1972 18.0762 25.3692 18.0762H14.5712C13.7432 18.0762 13.0712 17.4042 13.0712 16.5762C13.0712 15.7482 13.7432 15.0762 14.5712 15.0762H25.3692Z" fill="white"/>
</svg>
